<svg width="24" height="24" viewBox="0 0 24 24" fill="none" xmlns="http://www.w3.org/2000/svg">
<g id="imgpsh_fullsize_anim (2) 2" clip-path="url(#clip0_23840_5366)">
<g id="#211f20ff">
<path id="Vector" d="M5.36157 0H5.57104C6.05525 0.174737 6.42999 0.544211 6.79946 0.888421C7.61104 1.66 8.29104 2.55684 8.90051 3.49368C10.7405 2.89158 12.7584 2.87684 14.5984 3.48632C15.2953 2.40842 16.1005 1.38947 17.0731 0.547368C17.3353 0.326316 17.611 0.109474 17.9405 0H18.0995C18.4721 0.143158 18.6658 0.516842 18.8426 0.848421C20.0616 3.30737 20.3353 6.13684 20.03 8.83684C19.9763 8.99158 20.1268 9.08 20.2121 9.17474C21.0637 9.97368 21.8668 10.8274 22.571 11.76C22.9489 12.2568 23.2279 12.8242 23.3816 13.4295V13.7084C22.8637 12.9463 21.8658 12.9411 21.0574 12.7432C22.4942 14.0442 22.8605 16.4021 21.831 18.0558C21.9468 16.9726 21.3637 16.0095 20.7574 15.1674C20.9542 16.8747 20.7089 18.6568 19.8637 20.1695C19.5416 20.7863 19.0858 21.3253 18.5489 21.7674C19.0374 20.8211 19.3405 19.6232 18.81 18.6305C18.0858 19.9811 17.2121 21.2516 16.2058 22.4084C15.6847 22.9905 15.13 23.5526 14.4847 24H14.4416C14.9774 23.2674 15.2784 22.3979 15.5774 21.5495C15.9416 20.5032 16.2521 19.4347 16.4605 18.3453C17.0026 18.7484 17.0647 19.4737 16.9226 20.0853C17.5774 18.9663 18.05 17.7105 18.0553 16.4C18.3058 16.9074 18.41 17.4789 18.2847 18.0379C18.8763 17.2126 19.391 16.28 19.4753 15.2505C19.5237 14.7589 19.3847 14.2758 19.1889 13.8305C19.9174 13.7137 20.5216 14.2337 21.1847 14.4368C20.7205 13.6484 20.1247 12.9474 19.6058 12.1958C19.5268 12.1105 19.5616 11.9968 19.5721 11.8968C20.0742 11.6126 20.6595 11.56 21.2247 11.6158C20.2931 10.8084 19.3774 9.96737 18.6142 8.99474C18.4553 8.76105 18.2416 8.51368 18.2479 8.2179C18.3205 7.88211 18.7142 7.97789 18.9626 7.98737C19.0953 7.03263 19.0647 6.06316 18.9858 5.10421C18.87 3.96421 18.6331 2.82 18.131 1.78316C18.0321 1.61053 17.9321 1.36947 17.7079 1.34316C17.4858 1.43158 17.3247 1.61579 17.1553 1.77789C16.0374 2.90211 15.2921 4.32842 14.2058 5.48211C15.2742 5.72 17.5184 6.85 17.1553 7.5C15.6684 9.17474 14.1395 11.2147 13.7616 13.4C14.1037 12.8347 14.3826 12.2316 14.7458 11.6789C14.8384 11.5032 15.051 11.4811 15.2226 11.4316C16.0795 11.2411 16.9458 11.0968 17.8131 10.9589C16.9995 11.58 16.2216 12.2537 15.5447 13.0221C15.1637 13.2211 14.6605 13.1568 14.3331 13.4758C13.8195 13.9737 13.4826 14.6221 13.2058 15.2747C13.1489 13.1211 13.4637 10.9811 13.9226 8.88211C13.5237 9.35579 13.2858 9.93368 12.9689 10.4611C13.0468 9.56632 13.1237 8.67158 13.2058 7.77684C12.9721 8.06632 12.8331 8.41368 12.6679 8.74316C12.3226 9.44526 12.0026 10.1621 11.7626 10.9074C11.3268 9.84105 10.9121 8.75158 10.2931 7.77684C10.3647 8.66842 10.4542 9.55895 10.5321 10.4505C10.2079 9.89684 9.95315 9.29684 9.53525 8.80105C9.86367 10.0905 10.0521 11.4116 10.1984 12.7326C10.3026 13.5758 10.25 14.4263 10.2826 15.2737C9.99314 14.6305 9.66473 13.9863 9.16157 13.4821C8.82788 13.18 8.35104 13.1737 7.93946 13.0516C7.31104 12.2421 6.48367 11.6189 5.70367 10.9653C6.51946 11.08 7.32999 11.2326 8.1363 11.4032C8.34788 11.4611 8.60788 11.4842 8.7363 11.6895C9.09946 12.2316 9.39315 12.8189 9.69736 13.3958C9.40472 11.4832 8.3963 9.70632 6.97315 8.40421C6.28745 7.77684 6.03683 7.83158 6.60262 7.21579C7.16841 6.6 8.22051 5.71579 9.26894 5.48C8.96472 5.08526 8.63315 4.71158 8.33736 4.30842C7.58262 3.32105 6.93946 2.21579 5.96262 1.42211C5.7342 1.19158 5.4963 1.51474 5.40157 1.71158C4.78157 2.97368 4.54051 4.38947 4.47525 5.78421C4.42683 6.5179 4.44999 7.25579 4.54051 7.98632C4.76894 7.99369 5.13104 7.86105 5.22999 8.14947C5.30367 8.43895 5.07736 8.69053 4.93209 8.9179C4.15525 9.92842 3.22157 10.8074 2.24999 11.6274C2.80683 11.5705 3.4342 11.56 3.90262 11.9116C4.03525 12.0547 3.86578 12.1989 3.7942 12.3168C3.28262 13.0221 2.72788 13.7011 2.2942 14.46C2.94472 14.2063 3.57736 13.7105 4.30999 13.8284C3.84157 14.7442 4.01525 15.8263 4.43209 16.7253C4.65315 17.1789 4.88051 17.6474 5.22578 18.0211C5.05841 17.4747 5.15946 16.8874 5.44051 16.3979C5.40788 17.7126 5.92367 18.96 6.56367 20.0821C6.44472 19.4726 6.48052 18.7516 7.01841 18.3453C7.30473 19.7547 7.74683 21.1263 8.26051 22.4674C8.46894 23.0032 8.74367 23.5084 9.03841 24H8.89946C8.67315 23.6842 8.33315 23.4821 8.06683 23.2053C6.70788 21.8642 5.58999 20.2916 4.67209 18.6221C4.16788 19.6263 4.44788 20.8221 4.9542 21.7684C3.82788 20.8611 3.16893 19.4926 2.86683 18.1021C2.66683 17.1389 2.61946 16.14 2.78157 15.1684C2.11525 15.9737 1.57525 16.9705 1.66999 18.0505C1.22578 17.3084 1.01525 16.4284 1.1142 15.5674C1.21525 14.5105 1.62472 13.4242 2.46999 12.74C1.6542 12.9263 0.649987 12.9389 0.118408 13.6895V13.18L0.189987 13.3947C0.188935 12.9811 0.385777 12.6126 0.587882 12.2663C1.39104 11.0295 2.45841 9.99053 3.5163 8.97369C3.17104 6.26526 3.44157 3.42316 4.62683 0.94C4.80788 0.586316 4.99315 0.193684 5.36157 0ZM7.48999 11.8042C7.74051 12.0432 7.94473 12.3284 8.20157 12.56C8.38472 12.6274 8.57736 12.6674 8.76472 12.72C8.63104 12.4789 8.50578 12.2263 8.32051 12.02C8.0563 11.9095 7.77525 11.8337 7.48999 11.8042ZM15.1258 12.0547C14.9774 12.2684 14.8458 12.4926 14.7205 12.72C14.9184 12.6642 15.1321 12.6432 15.3184 12.5537C15.5479 12.2979 15.7721 12.0347 16.0163 11.7916C15.7163 11.8611 15.3921 11.8895 15.1258 12.0547Z" fill="#A8A8A8"/>
<path id="Vector_2" d="M5.28589 13.14C5.60063 13.7095 6.00063 14.2432 6.54589 14.6126C7.11221 14.9842 7.65852 15.4274 7.98484 16.0326C8.568 17.0674 8.50063 18.3095 8.9301 19.3979C9.29957 20.2937 10.2922 20.9558 11.2743 20.74C11.8385 20.5874 12.4038 20.8937 12.9638 20.7442C13.7122 20.5748 14.3385 19.9832 14.5901 19.2632C15.0259 18.0674 14.9122 16.6579 15.748 15.6253C16.2375 14.9411 17.0817 14.6558 17.6143 14.0158C17.8659 13.7611 18.0238 13.4369 18.2133 13.1358C18.0617 14.0032 17.6659 14.8253 17.0754 15.4779C16.7838 15.8263 16.3985 16.1063 16.2059 16.5295C15.7059 17.5547 15.7427 18.7484 15.2796 19.7874C14.8964 20.6505 14.1175 21.3484 13.1869 21.5569C12.5217 21.7421 11.8396 21.4842 11.168 21.6116C9.85747 21.7705 8.6101 20.8484 8.13957 19.66C7.73852 18.5674 7.72589 17.3453 7.14799 16.3158C6.90484 15.9463 6.5501 15.6684 6.27852 15.32C5.75957 14.7011 5.41957 13.9358 5.28589 13.14Z" fill="#A8A8A8"/>
<path id="Vector_3" d="M10.169 17.9295C11.09 17.2969 12.3626 17.3116 13.2984 17.9095C13.3058 18.4116 13.3237 18.9158 13.2932 19.4169C13.13 19.9579 12.4426 19.8537 12.1205 20.2158C11.8711 20.2305 11.6205 20.2305 11.3711 20.2169C11.0468 19.8695 10.4216 19.959 10.2005 19.4811C10.129 18.9695 10.1953 18.4453 10.169 17.9295Z" fill="#A8A8A8"/>
</g>
</g>
<defs>
<clipPath id="clip0_23840_5366">
<rect width="23.2632" height="24" fill="white" transform="translate(0.118408)"/>
</clipPath>
</defs>
</svg>
