<svg width="20" height="20" viewBox="0 0 20 20" fill="none" xmlns="http://www.w3.org/2000/svg">
<g clip-path="url(#clip0_23558_439)">
<path d="M0.0277901 9.67887C0.235548 9.6373 0.484871 9.59577 0.817329 9.5542C2.39638 9.42954 3.97546 9.88663 5.22209 10.8424C5.55451 11.0917 5.88697 11.341 6.30248 11.6735C6.80113 12.089 7.25821 11.9644 7.84 11.715C8.08932 11.5904 8.38022 11.5073 8.7542 11.4241C10.915 10.9255 13.3252 12.1306 13.6576 12.8785C13.6576 12.8785 14.1147 12.5045 14.6549 12.7123C14.6549 12.7123 13.7823 11.6734 14.2809 8.22444C14.2809 8.22444 14.4472 4.69233 12.785 4.15215C12.785 4.15215 11.7877 3.90282 11.3306 4.40147C10.8735 4.90012 9.41908 4.77546 9.41908 4.77546C9.41908 4.77546 8.17246 4.77546 7.79847 4.94169C7.42449 5.10792 6.17786 4.44304 6.17786 4.44304C6.17786 4.44304 5.7623 3.77816 6.34409 3.73663C6.34409 3.73663 5.30522 3.36264 5.76234 2.94709L7.29978 0.121418C7.29978 0.121418 7.96466 -0.294137 10.7488 0.41231C13.5329 1.16029 13.3251 0.786298 15.0289 2.36534C16.7326 3.90282 18.9765 8.76466 18.9765 8.76466C18.9765 8.76466 20.3894 12.837 19.8491 15.8289C19.7245 16.5768 19.6414 17.3248 19.6829 18.0728V18.239C19.7245 18.6546 19.3089 18.987 18.8518 19.1532C18.187 19.4441 17.439 19.4856 16.7326 19.3195C16.2755 19.2364 15.4859 19.3195 15.1951 19.4441C14.6548 19.6519 11.9538 20.8154 7.09199 18.987C6.55177 18.7793 6.01159 18.5299 5.47137 18.2391C4.88963 17.9066 3.68453 17.6573 2.89503 19.9428H0.0277901V9.67887Z" fill="#A8A8A8"/>
<path d="M12.0785 16.1198C12.0785 16.1198 11.9954 16.1198 11.8707 16.1613C11.7461 16.2029 11.5383 16.2029 11.289 16.2444C11.0397 16.286 10.7903 16.286 10.4994 16.286H10.0839C9.9177 16.286 9.79304 16.286 9.62685 16.2444C9.46062 16.2444 9.33595 16.2029 9.16976 16.1613C9.08667 16.1613 9.00353 16.1198 8.96201 16.1198C8.87891 16.0782 8.83734 16.0782 8.75425 16.0782C8.62959 16.0366 8.46336 15.9951 8.33869 15.9535C8.29713 15.912 8.21403 15.912 8.17246 15.8704C8.1309 15.8289 8.0478 15.8289 8.00623 15.7873C7.96467 15.7458 7.92314 15.7458 7.84 15.7042C7.79844 15.6627 7.75691 15.6627 7.71534 15.6212C7.63225 15.5796 7.54911 15.5381 7.50758 15.4965C7.38292 15.4134 7.29983 15.3718 7.29983 15.3718C7.29983 15.3718 7.34139 15.4549 7.42449 15.5381C7.46606 15.5796 7.54915 15.6627 7.59072 15.7458C7.67381 15.8289 7.75695 15.912 7.84004 15.9536C7.88161 15.9951 7.92314 16.0367 8.00627 16.0782C8.04784 16.1198 8.13093 16.1613 8.1725 16.2029C8.29716 16.286 8.42183 16.3276 8.58806 16.4107C8.75429 16.4522 8.87895 16.5353 9.04514 16.5769C9.1698 16.6185 9.33603 16.66 9.50222 16.66C9.66841 16.66 9.83464 16.7015 10.0009 16.7015C10.1671 16.7015 10.3333 16.7015 10.4995 16.66C10.6658 16.66 10.7904 16.6184 10.9566 16.5769L11.3306 16.4522C11.4553 16.4107 11.5384 16.3691 11.663 16.3276L11.9123 16.2029C11.9954 16.2029 12.0785 16.1198 12.0785 16.1198ZM0.0277939 19.6103C0.110889 19.4441 0.23555 19.2779 0.360212 19.1117C0.484875 18.9454 0.651105 18.7377 0.817296 18.5714C0.983486 18.4052 1.14972 18.1975 1.35751 18.0312C1.56527 17.865 1.77307 17.6572 2.02239 17.5326C2.27172 17.3664 2.52104 17.2417 2.77037 17.0755C2.89503 16.9924 3.01969 16.9508 3.14436 16.9093C3.26902 16.8677 3.39368 16.7846 3.51834 16.743C3.64301 16.6599 3.76767 16.6184 3.85076 16.5353C3.89233 16.4937 3.97543 16.4522 4.01699 16.4106C4.05856 16.3691 4.14166 16.3275 4.18322 16.286C4.30789 16.2029 4.39098 16.1197 4.47412 16.0366L4.72344 15.7873C4.88967 15.6211 5.01433 15.4549 5.139 15.2887C5.18056 15.2056 5.22209 15.1224 5.30523 15.0393L5.42989 14.79C5.47145 14.6238 5.55455 14.4991 5.55455 14.3744C5.59612 14.2498 5.59612 14.1667 5.59612 14.0836V14.0005V14.3744C5.59612 14.4991 5.55455 14.6653 5.55455 14.8315C5.51298 14.9146 5.51298 14.9978 5.47146 15.1224C5.42989 15.2055 5.38836 15.3302 5.34679 15.4133C5.2637 15.6211 5.09747 15.8289 4.93124 15.9951C4.84814 16.0782 4.76501 16.2028 4.68191 16.286C4.59882 16.3691 4.47415 16.4937 4.39102 16.5353C4.34945 16.5768 4.26636 16.6184 4.22479 16.6599C4.18322 16.7015 4.10013 16.743 4.05856 16.7846C3.9339 16.8677 3.80924 16.9508 3.68457 16.9924C3.55991 17.0755 3.43525 17.117 3.31059 17.2001C3.18592 17.2832 3.06126 17.3248 2.9366 17.4079C2.68727 17.5325 2.43795 17.6572 2.23019 17.8234C2.10553 17.9065 2.02243 17.9897 1.89777 18.0312C1.77311 18.1143 1.69001 18.1974 1.56535 18.2805C1.35759 18.4467 1.19136 18.6129 0.983603 18.7792C0.817374 18.9454 0.651183 19.1116 0.526521 19.2778C0.401858 19.444 0.277195 19.5687 0.152533 19.6934C0.110966 19.7765 0.069437 19.818 0.0278702 19.8596L0.0277939 19.6103ZM11.4967 3.40418H10.9565C10.7903 3.40418 10.5825 3.36262 10.4163 3.32109C10.3332 3.27952 10.2086 3.23799 10.1254 3.19643C10.0839 3.19643 10.0423 3.15486 10.0008 3.11333C9.95919 3.11333 9.95919 3.07176 9.91766 3.07176L9.87609 3.0302L9.793 2.98863L9.75143 2.94706L9.62677 2.8224C9.5852 2.8224 9.5852 2.78083 9.54367 2.78083L9.46058 2.73926C9.41901 2.73926 9.41901 2.6977 9.37748 2.6977C9.33595 2.6977 9.33592 2.65613 9.29439 2.65613C9.16972 2.61456 9.08663 2.61456 8.96197 2.61456C8.87887 2.61456 8.75421 2.61456 8.67107 2.65613C8.58798 2.65613 8.50484 2.6977 8.46332 2.73923C8.38022 2.78079 8.33865 2.78079 8.29709 2.82232C8.21399 2.86389 8.17242 2.90542 8.17242 2.90542C8.17242 2.90542 8.21399 2.90542 8.33865 2.86385C8.38022 2.86385 8.46332 2.86385 8.50488 2.82228C8.58798 2.82228 8.62955 2.82228 8.71264 2.78071H9.12816C9.16969 2.78071 9.21125 2.82228 9.25282 2.82228C9.29439 2.82228 9.29439 2.82228 9.33592 2.86385C9.33592 2.86385 9.37748 2.86385 9.37748 2.90542L9.41905 2.94698L9.46062 2.98855L9.50218 3.03012L9.58528 3.07169L9.66838 3.15478L9.75147 3.19635L9.83457 3.23791C9.87613 3.23791 9.87613 3.27948 9.91766 3.27948C9.91766 3.32105 9.95923 3.36258 10.0423 3.36258C10.0839 3.40414 10.167 3.40414 10.2086 3.40414C10.2501 3.40414 10.3332 3.44571 10.3748 3.44571C10.4994 3.48728 10.5825 3.48728 10.6657 3.48728H10.9566C11.0397 3.48728 11.1228 3.48728 11.2059 3.44571C11.289 3.44571 11.3306 3.40414 11.3721 3.40414C11.4137 3.44575 11.4137 3.44575 11.4967 3.40418ZM9.08659 3.23799H9.00349C8.96197 3.23799 8.87883 3.23799 8.79574 3.27956C8.75417 3.27956 8.71264 3.32113 8.67107 3.32113C8.62951 3.36269 8.58798 3.36269 8.54641 3.40422C8.50484 3.44579 8.46332 3.44579 8.42175 3.48732L8.33865 3.57041C8.33865 3.61198 8.33865 3.65351 8.29709 3.65351C8.25552 3.69508 8.21399 3.69508 8.21399 3.7366C8.17242 3.7366 8.1309 3.77817 8.1309 3.77817C8.08933 3.77817 8.0478 3.81974 8.0478 3.81974C8.00623 3.81974 7.96471 3.81974 7.96471 3.86131H7.79851L7.84008 3.90287C7.88165 3.90287 7.88165 3.90287 7.92318 3.94444H8.1725C8.21407 3.94444 8.2556 3.90287 8.29717 3.90287C8.33873 3.86131 8.38026 3.86131 8.42183 3.81978L8.54649 3.69511L8.58806 3.65355L8.62962 3.61198C8.67119 3.57041 8.67119 3.52888 8.71272 3.52888C8.75429 3.48732 8.75429 3.44579 8.79581 3.40422C8.83738 3.40422 8.83738 3.36266 8.87891 3.36266C8.92048 3.32109 8.96201 3.27956 9.00357 3.27956C9.04506 3.23799 9.08659 3.23799 9.08659 3.23799Z" fill="#33C3B3"/>
<path d="M9.29436 2.73934C9.25279 2.65625 9.12813 2.65625 9.04503 2.57311C9.00347 2.53155 8.96194 2.49002 8.96194 2.44845C8.92037 2.36536 8.87884 2.24069 8.83728 2.11603C8.83728 2.07446 8.79571 2.03294 8.79571 2.03294C8.71261 1.99137 8.62948 2.0745 8.62948 2.11603C8.62948 2.19913 8.62948 2.28226 8.58791 2.32379C8.54634 2.40688 8.46325 2.44845 8.38015 2.49002C8.1724 2.53159 7.92307 2.40692 7.8815 2.19913C7.8815 2.32379 7.83994 2.44845 7.75684 2.53155C7.71527 2.61464 7.59061 2.65621 7.63218 2.7393C7.67375 2.8224 7.75684 2.8224 7.83994 2.8224C8.00617 2.8224 8.17236 2.86397 8.33859 2.78083C8.38015 2.78083 8.42168 2.73927 8.50482 2.73927H8.9619C9.045 2.78083 9.08656 2.86393 9.08656 2.98859C9.16966 2.98859 9.25279 2.94702 9.29432 2.9055C9.33589 2.90553 9.33589 2.78087 9.29436 2.73934Z" fill="#33C3B3"/>
</g>
<defs>
<clipPath id="clip0_23558_439">
<rect width="20" height="20" fill="white" transform="matrix(-1 0 0 1 20 0)"/>
</clipPath>
</defs>
</svg>
