<svg width="25" height="24" viewBox="0 0 25 24" fill="none" xmlns="http://www.w3.org/2000/svg">
<path fill-rule="evenodd" clip-rule="evenodd" d="M20.9165 9.9043H3.09253C2.67853 9.9043 2.34253 9.5683 2.34253 9.1543C2.34253 8.7403 2.67853 8.4043 3.09253 8.4043H20.9165C21.3305 8.4043 21.6665 8.7403 21.6665 9.1543C21.6665 9.5683 21.3305 9.9043 20.9165 9.9043Z" fill="#A8A8A8"/>
<path fill-rule="evenodd" clip-rule="evenodd" d="M16.4513 13.8096C16.0373 13.8096 15.6973 13.4736 15.6973 13.0596C15.6973 12.6456 16.0283 12.3096 16.4423 12.3096H16.4513C16.8653 12.3096 17.2013 12.6456 17.2013 13.0596C17.2013 13.4736 16.8653 13.8096 16.4513 13.8096Z" fill="#A8A8A8"/>
<path fill-rule="evenodd" clip-rule="evenodd" d="M12.0138 13.8096C11.5998 13.8096 11.2598 13.4736 11.2598 13.0596C11.2598 12.6456 11.5908 12.3096 12.0048 12.3096H12.0138C12.4278 12.3096 12.7638 12.6456 12.7638 13.0596C12.7638 13.4736 12.4278 13.8096 12.0138 13.8096Z" fill="#A8A8A8"/>
<path fill-rule="evenodd" clip-rule="evenodd" d="M7.56701 13.8096C7.15301 13.8096 6.81201 13.4736 6.81201 13.0596C6.81201 12.6456 7.14401 12.3096 7.55801 12.3096H7.56701C7.98101 12.3096 8.31701 12.6456 8.31701 13.0596C8.31701 13.4736 7.98101 13.8096 7.56701 13.8096Z" fill="#A8A8A8"/>
<path fill-rule="evenodd" clip-rule="evenodd" d="M16.4513 17.6963C16.0373 17.6963 15.6973 17.3603 15.6973 16.9463C15.6973 16.5323 16.0283 16.1963 16.4423 16.1963H16.4513C16.8653 16.1963 17.2013 16.5323 17.2013 16.9463C17.2013 17.3603 16.8653 17.6963 16.4513 17.6963Z" fill="#A8A8A8"/>
<path fill-rule="evenodd" clip-rule="evenodd" d="M12.0138 17.6963C11.5998 17.6963 11.2598 17.3603 11.2598 16.9463C11.2598 16.5323 11.5908 16.1963 12.0048 16.1963H12.0138C12.4278 16.1963 12.7638 16.5323 12.7638 16.9463C12.7638 17.3603 12.4278 17.6963 12.0138 17.6963Z" fill="#A8A8A8"/>
<path fill-rule="evenodd" clip-rule="evenodd" d="M7.56701 17.6963C7.15301 17.6963 6.81201 17.3603 6.81201 16.9463C6.81201 16.5323 7.14401 16.1963 7.55801 16.1963H7.56701C7.98101 16.1963 8.31701 16.5323 8.31701 16.9463C8.31701 17.3603 7.98101 17.6963 7.56701 17.6963Z" fill="#A8A8A8"/>
<path fill-rule="evenodd" clip-rule="evenodd" d="M16.0435 5.791C15.6295 5.791 15.2935 5.455 15.2935 5.041V1.75C15.2935 1.336 15.6295 1 16.0435 1C16.4575 1 16.7935 1.336 16.7935 1.75V5.041C16.7935 5.455 16.4575 5.791 16.0435 5.791Z" fill="#A8A8A8"/>
<path fill-rule="evenodd" clip-rule="evenodd" d="M7.96533 5.791C7.55133 5.791 7.21533 5.455 7.21533 5.041V1.75C7.21533 1.336 7.55133 1 7.96533 1C8.37933 1 8.71533 1.336 8.71533 1.75V5.041C8.71533 5.455 8.37933 5.791 7.96533 5.791Z" fill="#A8A8A8"/>
<mask id="mask0_23840_5376" style="mask-type:luminance" maskUnits="userSpaceOnUse" x="2" y="2" width="20" height="21">
<path fill-rule="evenodd" clip-rule="evenodd" d="M2.25 2.5791H21.75V22.5H2.25V2.5791Z" fill="white"/>
</mask>
<g mask="url(#mask0_23840_5376)">
<path fill-rule="evenodd" clip-rule="evenodd" d="M7.771 4.0791C5.178 4.0791 3.75 5.4621 3.75 7.9731V17.0221C3.75 19.5881 5.178 21.0001 7.771 21.0001H16.229C18.822 21.0001 20.25 19.6141 20.25 17.0981V7.9731C20.254 6.7381 19.922 5.7781 19.263 5.1181C18.585 4.4381 17.54 4.0791 16.238 4.0791H7.771ZM16.229 22.5001H7.771C4.366 22.5001 2.25 20.4011 2.25 17.0221V7.9731C2.25 4.6451 4.366 2.5791 7.771 2.5791H16.238C17.947 2.5791 19.36 3.0911 20.325 4.0581C21.262 4.9991 21.755 6.3521 21.75 7.9751V17.0981C21.75 20.4301 19.634 22.5001 16.229 22.5001Z" fill="#A8A8A8"/>
</g>
</svg>
