<svg width="21" height="22" viewBox="0 0 21 22" fill="none" xmlns="http://www.w3.org/2000/svg">
<g id="Home">
<mask id="mask0_25541_3799" style="mask-type:luminance" maskUnits="userSpaceOnUse" x="0" y="0" width="21" height="22">
<path id="Clip 2" fill-rule="evenodd" clip-rule="evenodd" d="M0 0.000213623H20.4998V21.5052H0V0.000213623Z" fill="white"/>
</mask>
<g mask="url(#mask0_25541_3799)">
<path id="Fill 1" fill-rule="evenodd" clip-rule="evenodd" d="M11.7168 14.2913C12.9208 14.2913 13.9008 15.2643 13.9008 16.4603V19.5363C13.9008 19.7933 14.1068 19.9993 14.3708 20.0053H16.2768C17.7788 20.0053 18.9998 18.7993 18.9998 17.3173V8.59331C18.9928 8.08331 18.7498 7.60331 18.3328 7.28431L11.7398 2.02631C10.8548 1.32531 9.61676 1.32531 8.72876 2.02831L2.18076 7.28231C1.74776 7.61131 1.50476 8.09131 1.49976 8.61031V17.3173C1.49976 18.7993 2.72076 20.0053 4.22276 20.0053H6.14676C6.41776 20.0053 6.63776 19.7903 6.63776 19.5263C6.63776 19.4683 6.64476 19.4103 6.65676 19.3553V16.4603C6.65676 15.2713 7.63076 14.2993 8.82576 14.2913H11.7168ZM16.2768 21.5053H14.3528C13.2508 21.4793 12.4008 20.6143 12.4008 19.5363V16.4603C12.4008 16.0913 12.0938 15.7913 11.7168 15.7913H8.83076C8.46176 15.7933 8.15676 16.0943 8.15676 16.4603V19.5263C8.15676 19.6013 8.14676 19.6733 8.12576 19.7413C8.01776 20.7313 7.17176 21.5053 6.14676 21.5053H4.22276C1.89376 21.5053 -0.000244141 19.6263 -0.000244141 17.3173V8.60331C0.00975586 7.60931 0.467756 6.69931 1.25876 6.10031L7.79376 0.855311C9.23276 -0.284689 11.2378 -0.284689 12.6738 0.853311L19.2558 6.10331C20.0288 6.69231 20.4868 7.60031 20.4998 8.58231V17.3173C20.4998 19.6263 18.6058 21.5053 16.2768 21.5053Z" fill="white"/>
</g>
</g>
</svg>
