<svg width="20" height="21" viewBox="0 0 20 21" fill="none" xmlns="http://www.w3.org/2000/svg">
<path d="M5 8.83333V7.16666C5 4.40833 5.83333 2.16666 10 2.16666C14.1667 2.16666 15 4.40833 15 7.16666V8.83333" stroke="#A8A8A8" stroke-width="1.5" stroke-linecap="round" stroke-linejoin="round"/>
<path d="M9.99984 15.9167C11.1504 15.9167 12.0832 14.9839 12.0832 13.8333C12.0832 12.6827 11.1504 11.75 9.99984 11.75C8.84924 11.75 7.9165 12.6827 7.9165 13.8333C7.9165 14.9839 8.84924 15.9167 9.99984 15.9167Z" stroke="#A8A8A8" stroke-width="1.5" stroke-linecap="round" stroke-linejoin="round"/>
<path d="M14.1665 18.8333H5.83317C2.49984 18.8333 1.6665 18 1.6665 14.6667V13C1.6665 9.66666 2.49984 8.83333 5.83317 8.83333H14.1665C17.4998 8.83333 18.3332 9.66666 18.3332 13V14.6667C18.3332 18 17.4998 18.8333 14.1665 18.8333Z" stroke="#A8A8A8" stroke-width="1.5" stroke-linecap="round" stroke-linejoin="round"/>
</svg>
