<svg width="233" height="240" viewBox="0 0 233 240" fill="none" xmlns="http://www.w3.org/2000/svg">
<g clip-path="url(#clip0_23873_6538)">
<path d="M52.4316 0H54.5263C59.3684 1.74737 63.1158 5.44211 66.8105 8.88421C74.9263 16.6 81.7263 25.5684 87.8211 34.9368C106.221 28.9158 126.4 28.7684 144.8 34.8632C151.768 24.0842 159.821 13.8947 169.547 5.47368C172.168 3.26316 174.926 1.09474 178.221 0H179.811C183.537 1.43158 185.474 5.16842 187.242 8.48421C199.432 33.0737 202.168 61.3684 199.116 88.3684C198.579 89.9158 200.084 90.8 200.937 91.7474C209.453 99.7368 217.484 108.274 224.526 117.6C228.305 122.568 231.095 128.242 232.632 134.295V137.084C227.453 129.463 217.474 129.411 209.389 127.432C223.758 140.442 227.421 164.021 217.126 180.558C218.284 169.726 212.453 160.095 206.39 151.674C208.358 168.747 205.905 186.568 197.453 201.695C194.232 207.863 189.674 213.253 184.305 217.674C189.19 208.211 192.221 196.232 186.916 186.305C179.674 199.811 170.937 212.516 160.874 224.084C155.663 229.905 150.116 235.526 143.663 240H143.232C148.59 232.674 151.6 223.979 154.59 215.495C158.232 205.032 161.337 194.347 163.421 183.453C168.842 187.484 169.463 194.737 168.042 200.853C174.589 189.663 179.316 177.105 179.368 164C181.874 169.074 182.916 174.789 181.663 180.379C187.579 172.126 192.726 162.8 193.568 152.505C194.053 147.589 192.663 142.758 190.705 138.305C197.99 137.137 204.032 142.337 210.663 144.368C206.021 136.484 200.063 129.474 194.874 121.958C194.084 121.105 194.432 119.968 194.537 118.968C199.558 116.126 205.411 115.6 211.063 116.158C201.747 108.084 192.59 99.6737 184.958 89.9474C183.368 87.6105 181.232 85.1368 181.295 82.1789C182.021 78.8211 185.958 79.7789 188.442 79.8737C189.768 70.3263 189.463 60.6316 188.674 51.0421C187.516 39.6421 185.147 28.2 180.126 17.8316C179.137 16.1053 178.137 13.6947 175.895 13.4316C173.674 14.3158 172.063 16.1579 170.368 17.7789C159.189 29.0211 151.737 43.2842 140.874 54.8211C151.558 57.2 174 68.5 170.368 75C155.5 91.7474 140.211 112.147 136.432 134C139.853 128.347 142.642 122.316 146.274 116.789C147.2 115.032 149.326 114.811 151.042 114.316C159.611 112.411 168.274 110.968 176.947 109.589C168.811 115.8 161.032 122.537 154.263 130.221C150.453 132.211 145.421 131.568 142.147 134.758C137.011 139.737 133.642 146.221 130.874 152.747C130.305 131.211 133.453 109.811 138.042 88.8211C134.053 93.5579 131.674 99.3368 128.505 104.611C129.284 95.6631 130.053 86.7158 130.874 77.7684C128.537 80.6632 127.147 84.1368 125.495 87.4316C122.042 94.4526 118.842 101.621 116.442 109.074C112.084 98.4105 107.937 87.5158 101.747 77.7684C102.463 86.6842 103.358 95.5895 104.137 104.505C100.895 98.9684 98.3474 92.9684 94.1684 88.0105C97.4526 100.905 99.3369 114.116 100.8 127.326C101.842 135.758 101.316 144.263 101.642 152.737C98.7474 146.305 95.4632 139.863 90.4316 134.821C87.0947 131.8 82.3263 131.737 78.2105 130.516C71.9263 122.421 63.6526 116.189 55.8526 109.653C64.0105 110.8 72.1158 112.326 80.179 114.032C82.2947 114.611 84.8948 114.842 86.179 116.895C89.8105 122.316 92.7474 128.189 95.7895 133.958C92.8632 114.832 82.779 97.0631 68.5474 84.0421C61.6905 77.7684 59.1842 78.3158 64.8421 72.1579C70.5 66 81.0211 57.1579 91.5053 54.8C88.4632 50.8526 85.1474 47.1158 82.1895 43.0842C74.6421 33.2105 68.2105 22.1579 58.4421 14.2211C56.1579 11.9158 53.779 15.1474 52.8316 17.1158C46.6316 29.7368 44.2211 43.8947 43.5684 57.8421C43.0842 65.1789 43.3158 72.5579 44.2211 79.8632C46.5053 79.9368 50.1263 78.6105 51.1158 81.4947C51.8526 84.3895 49.5895 86.9053 48.1368 89.1789C40.3684 99.2842 31.0316 108.074 21.3158 116.274C26.8842 115.705 33.1579 115.6 37.8421 119.116C39.1684 120.547 37.4737 121.989 36.7579 123.168C31.6421 130.221 26.0947 137.011 21.7579 144.6C28.2632 142.063 34.5895 137.105 41.9158 138.284C37.2316 147.442 38.9684 158.263 43.1368 167.253C45.3474 171.789 47.6211 176.474 51.0737 180.211C49.4 174.747 50.4105 168.874 53.2211 163.979C52.8947 177.126 58.0526 189.6 64.4526 200.821C63.2632 194.726 63.6211 187.516 69 183.453C71.8632 197.547 76.2842 211.263 81.4211 224.674C83.5053 230.032 86.2526 235.084 89.2 240H87.8105C85.5474 236.842 82.1474 234.821 79.4842 232.053C65.8947 218.642 54.7158 202.916 45.5368 186.221C40.4947 196.263 43.2947 208.221 48.3579 217.684C37.0947 208.611 30.5053 194.926 27.4842 181.021C25.4842 171.389 25.0105 161.4 26.6316 151.684C19.9684 159.737 14.5684 169.705 15.5158 180.505C11.0737 173.084 8.96842 164.284 9.9579 155.674C10.9684 145.105 15.0632 134.242 23.5158 127.4C15.3579 129.263 5.31579 129.389 0 136.895V131.8L0.71579 133.947C0.705263 129.811 2.67368 126.126 4.69474 122.663C12.7263 110.295 23.4 99.9053 33.979 89.7368C30.5263 62.6526 33.2316 34.2316 45.0842 9.4C46.8947 5.86316 48.7474 1.93684 52.4316 0ZM73.7158 118.042C76.2211 120.432 78.2632 123.284 80.8316 125.6C82.6632 126.274 84.5895 126.674 86.4632 127.2C85.1263 124.789 83.8737 122.263 82.0211 120.2C79.379 119.095 76.5684 118.337 73.7158 118.042ZM150.074 120.547C148.59 122.684 147.274 124.926 146.021 127.2C148 126.642 150.137 126.432 152 125.537C154.295 122.979 156.537 120.347 158.979 117.916C155.979 118.611 152.737 118.895 150.074 120.547Z" fill="#111111"/>
<path d="M51.6737 131.4C54.8211 137.095 58.8211 142.432 64.2737 146.126C69.9369 149.842 75.4 154.274 78.6632 160.326C84.4948 170.674 83.8211 183.095 88.1158 193.979C91.8106 202.937 101.737 209.558 111.558 207.4C117.2 205.874 122.853 208.937 128.453 207.442C135.937 205.747 142.2 199.832 144.716 192.632C149.074 180.674 147.937 166.579 156.295 156.253C161.19 149.411 169.632 146.558 174.958 140.158C177.474 137.611 179.053 134.368 180.947 131.358C179.432 140.032 175.474 148.253 169.568 154.779C166.653 158.263 162.8 161.063 160.874 165.295C155.874 175.547 156.242 187.484 151.611 197.874C147.779 206.505 139.99 213.484 130.684 215.568C124.032 217.421 117.211 214.842 110.495 216.116C97.3895 217.705 84.9158 208.484 80.2105 196.6C76.2 185.674 76.0737 173.453 70.2948 163.158C67.8632 159.463 64.3158 156.684 61.6 153.2C56.4105 147.011 53.0105 139.358 51.6737 131.4Z" fill="#111111"/>
<path d="M100.505 179.295C109.716 172.968 122.442 173.116 131.8 179.095C131.874 184.116 132.053 189.158 131.747 194.168C130.116 199.579 123.242 198.537 120.021 202.158C117.526 202.305 115.021 202.305 112.526 202.168C109.284 198.695 103.032 199.589 100.821 194.811C100.105 189.695 100.768 184.453 100.505 179.295Z" fill="#111111"/>
</g>
<defs>
<clipPath id="clip0_23873_6538">
<rect width="232.632" height="240" fill="white"/>
</clipPath>
</defs>
</svg>
