<svg width="24" height="25" viewBox="0 0 24 25" fill="none" xmlns="http://www.w3.org/2000/svg">
<path d="M14.7776 22.451C13.9742 22.9562 13.0187 23.2476 11.9985 23.2476C10.9782 23.2476 10.0227 22.9562 9.21934 22.451C8.5063 22.0026 8.14977 21.7784 8.27454 21.4056C8.3993 21.0329 8.89126 21.0746 9.87518 21.1581C11.2824 21.2775 12.7146 21.2775 14.1217 21.1581C15.1057 21.0746 15.5976 21.0329 15.7224 21.4056C15.8472 21.7784 15.4906 22.0026 14.7776 22.451Z" fill="white"/>
<path d="M12 1.74969C12.4732 1.74969 12.7098 1.74969 12.8281 1.87406C12.8789 1.92751 12.9115 1.9883 12.928 2.06018C12.9664 2.22745 12.8089 2.46543 12.4937 2.94139C11.8657 3.8898 11.5 5.02704 11.5 6.24969C11.5 9.5634 14.1863 12.2497 17.5 12.2497C18.08 12.2497 18.6407 12.1674 19.1712 12.0139C19.7331 11.8512 20.014 11.7699 20.1634 11.8211C20.3128 11.8723 20.4904 12.1164 20.8456 12.6047C20.8527 12.6145 20.8599 12.6244 20.8671 12.6342C21.0337 12.8622 21.2247 13.1237 21.3697 13.3502C21.6255 13.75 21.8754 14.2321 21.9613 14.7939C22.2416 16.6267 20.9494 17.8133 19.6625 18.3451C15.1298 20.2179 8.87016 20.2179 4.33746 18.3451C3.05056 17.8133 1.75836 16.6267 2.03868 14.7939C2.12459 14.2321 2.37452 13.75 2.63033 13.3502C2.77527 13.1237 2.96634 12.8622 3.13289 12.6342C3.22879 12.5029 3.31656 12.3828 3.38271 12.2869C3.85838 11.587 3.92776 10.8083 3.92786 9.77666C3.92789 5.34121 7.54419 1.74969 12 1.74969Z" fill="white"/>
<path fill-rule="evenodd" clip-rule="evenodd" d="M13 6.24991C13 3.76463 15.0147 1.74991 17.5 1.74991C19.9853 1.74991 22 3.76463 22 6.24991C22 8.73519 19.9853 10.7499 17.5 10.7499C15.0147 10.7499 13 8.73519 13 6.24991ZM15.1722 5.33631C15.061 5.61931 15 5.92748 15 6.24991C15 7.63062 16.1193 8.74991 17.5 8.74991C17.8224 8.74991 18.1306 8.68887 18.4136 8.57772L15.1722 5.33631ZM16.5864 3.9221L19.8278 7.1635C19.939 6.88051 20 6.57234 20 6.24991C20 4.8692 18.8807 3.74991 17.5 3.74991C17.1776 3.74991 16.8694 3.81095 16.5864 3.9221Z" fill="#7D12FF"/>
</svg>
